<svg width="120" height="120" viewBox="0 0 120 120" fill="none" xmlns="http://www.w3.org/2000/svg">
<path d="M72 68L74 68L72 68ZM72 80L70 80L72 80ZM50 68.1315C50 67.0269 49.1046 66.1315 48 66.1315C46.8954 66.1315 46 67.0269 46 68.1315L50 68.1315ZM60.8117 54.0232C59.7089 53.96 58.7637 54.8028 58.7005 55.9055C58.6374 57.0083 59.4801 57.9535 60.5829 58.0166L60.8117 54.0232ZM70 68L70 80L74 80L74 68L70 68ZM50 80L50 68.1315L46 68.1315L46 80L50 80ZM70 80C70 85.5228 65.5228 90 60 90L60 94C67.732 94 74 87.732 74 80L70 80ZM74 68C74 60.5404 68.1669 54.4446 60.8117 54.0232L60.5829 58.0166C65.8335 58.3175 70 62.6729 70 68L74 68ZM46 80C46 87.732 52.268 94 60 94L60 90C54.4772 90 50 85.5228 50 80L46 80Z" fill="#0072CE"/>
<path d="M48 52L46 52L48 52ZM48 40L50 40L48 40ZM70 51.8685C70 52.9731 70.8954 53.8685 72 53.8685C73.1046 53.8685 74 52.9731 74 51.8685L70 51.8685ZM59.1883 65.9768C60.2911 66.04 61.2363 65.1972 61.2995 64.0945C61.3626 62.9917 60.5199 62.0465 59.4171 61.9834L59.1883 65.9768ZM50 52L50 40L46 40L46 52L50 52ZM70 40L70 51.8685L74 51.8685L74 40L70 40ZM50 40C50 34.4772 54.4772 30 60 30L60 26C52.268 26 46 32.268 46 40L50 40ZM46 52C46 59.4596 51.8331 65.5554 59.1883 65.9768L59.4171 61.9834C54.1665 61.6825 50 57.3271 50 52L46 52ZM74 40C74 32.268 67.732 26 60 26L60 30C65.5228 30 70 34.4772 70 40L74 40Z" fill="#0072CE"/>
</svg>
