<svg width="120" height="120" viewBox="0 0 120 120" fill="none" xmlns="http://www.w3.org/2000/svg">
<rect x="32" y="42" width="56" height="36" rx="4" stroke="#0072CE" stroke-width="4" stroke-linecap="round" stroke-linejoin="round"/>
<path d="M89.3015 47.5186C90.1402 46.7997 90.2373 45.5371 89.5184 44.6985C88.7996 43.8598 87.537 43.7627 86.6983 44.4815L89.3015 47.5186ZM65.2063 65.5374L63.9047 64.0189L63.9047 64.0189L65.2063 65.5374ZM54.7937 65.5374L56.0953 64.0189L56.0953 64.0189L54.7937 65.5374ZM33.3016 44.4815C32.4629 43.7626 31.2003 43.8598 30.4815 44.6984C29.7626 45.5371 29.8598 46.7997 30.6984 47.5185L33.3016 44.4815ZM86.6983 44.4815L63.9047 64.0189L66.5079 67.0559L89.3015 47.5186L86.6983 44.4815ZM56.0953 64.0189L33.3016 44.4815L30.6984 47.5185L53.4921 67.0559L56.0953 64.0189ZM63.9047 64.0189C61.6578 65.9449 58.3422 65.9449 56.0953 64.0189L53.4921 67.0559C57.237 70.2659 62.763 70.2659 66.5079 67.0559L63.9047 64.0189Z" fill="#0072CE"/>
</svg>
