<svg width="120" height="120" viewBox="0 0 120 120" fill="none" xmlns="http://www.w3.org/2000/svg">
<path d="M70.0497 84.2982L70.3626 82.3228L70.3626 82.3228L70.0497 84.2982ZM35.2647 49.5131L33.2893 49.826L33.2893 49.826L35.2647 49.5131ZM51.094 47.8812L52.9067 47.0359L52.9067 47.0359L51.094 47.8812ZM71.0929 67.88L71.9381 66.0674L71.9381 66.0674L71.0929 67.88ZM69.7649 67.2316L70.6743 65.4503L69.7649 67.2316ZM37.0961 43.7561L38.0041 45.5381L37.0961 43.7561ZM76.293 69.8902L75.6993 71.8001L76.293 69.8902ZM72.062 84.567L71.8452 86.5553L72.062 84.567ZM75.808 82.4669L74.026 81.5589L75.808 82.4669ZM72.2787 82.5788C71.6392 82.5091 71.0003 82.4238 70.3626 82.3228L69.7369 86.2735C70.4385 86.3847 71.1415 86.4785 71.8452 86.5553L72.2787 82.5788ZM70.3626 82.3228C62.0515 81.0064 54.3704 77.0927 48.4202 71.1426L45.5918 73.971C52.1392 80.5185 60.5914 84.825 69.7369 86.2735L70.3626 82.3228ZM48.4202 71.1426C42.4701 65.1925 38.5564 57.5114 37.2401 49.2002L33.2893 49.826C34.7378 58.9714 39.0444 67.4236 45.5918 73.971L48.4202 71.1426ZM37.2401 49.2002C37.1391 48.563 37.0539 47.9246 36.9842 47.2855L33.0077 47.7191C33.0844 48.4223 33.1782 49.1248 33.2893 49.826L37.2401 49.2002ZM42.3175 38.8511L36.1881 41.9741L38.0041 45.5381L44.1334 42.4151L42.3175 38.8511ZM47.4029 43.9892C47.9333 45.5969 48.5598 47.1788 49.2814 48.7264L52.9067 47.0359C52.2516 45.6311 51.6829 44.1951 51.2015 42.7359L47.4029 43.9892ZM49.2814 48.7264C49.643 49.5019 50.0266 50.2646 50.4314 51.0138L53.9506 49.1123C53.5831 48.4323 53.2349 47.7399 52.9067 47.0359L49.2814 48.7264ZM49.9103 52.8998C46.0966 54.6333 45.1882 59.6424 48.1505 62.6046L50.9789 59.7762C49.9915 58.7888 50.2943 57.1191 51.5655 56.5413L49.9103 52.8998ZM48.1505 62.6046L48.3117 62.7659L51.1401 59.9374L50.9789 59.7762L48.1505 62.6046ZM48.3117 62.7659L56.797 71.2511L59.6254 68.4227L51.1401 59.9374L48.3117 62.7659ZM56.797 71.2511L56.9582 71.4124L59.7866 68.5839L59.6254 68.4227L56.797 71.2511ZM56.9582 71.4124C59.9204 74.3746 64.9295 73.4663 66.663 69.6525L63.0216 67.9973C62.4437 69.2686 60.774 69.5714 59.7866 68.5839L56.9582 71.4124ZM68.8554 69.0129C69.3147 69.2474 69.7789 69.474 70.2477 69.6926L71.9381 66.0674C71.5126 65.869 71.0912 65.6632 70.6743 65.4503L68.8554 69.0129ZM70.2477 69.6926C72.024 70.5209 73.8455 71.2238 75.6993 71.8001L76.8867 67.9804C75.2041 67.4573 73.5506 66.8193 71.9381 66.0674L70.2477 69.6926ZM77.59 83.3748L80.8866 76.905L77.3226 75.089L74.026 81.5589L77.59 83.3748ZM50.4314 51.0138C50.8514 51.791 50.5007 52.6314 49.9103 52.8998L51.5655 56.5413C54.4763 55.2182 55.3589 51.7187 53.9506 49.1123L50.4314 51.0138ZM66.663 69.6525C66.9812 68.9527 67.9537 68.5525 68.8554 69.0129L70.6743 65.4503C67.9618 64.0655 64.3827 65.0029 63.0216 67.9973L66.663 69.6525ZM36.9842 47.2855C36.9115 46.619 37.2789 45.9077 38.0041 45.5381L36.1881 41.9741C34.1122 43.0318 32.7396 45.2603 33.0077 47.7191L36.9842 47.2855ZM75.6993 71.8001C77.2654 72.2869 77.9031 73.9496 77.3226 75.089L80.8866 76.905C82.7537 73.2405 80.4691 69.094 76.8867 67.9804L75.6993 71.8001ZM44.1334 42.4151C45.2599 41.8411 46.8967 42.4551 47.4029 43.9892L51.2015 42.7359C50.0392 39.2135 45.9353 37.0077 42.3175 38.8511L44.1334 42.4151ZM71.8452 86.5553C74.304 86.8233 76.5323 85.4507 77.59 83.3748L74.026 81.5589C73.6565 82.2841 72.9451 82.6515 72.2787 82.5788L71.8452 86.5553Z" fill="#0072CE"/>
<path d="M64.6504 43.8477L73.7413 43.8477L75.5595 43.8477L84.6504 43.8477" stroke="#0072CE" stroke-width="4" stroke-linecap="round" stroke-linejoin="round"/>
<path d="M74.6504 33.8477L74.6504 42.9386L74.6504 44.7567L74.6504 53.8477" stroke="#0072CE" stroke-width="4" stroke-linecap="round" stroke-linejoin="round"/>
</svg>
