<svg width="120" height="120" viewBox="0 0 120 120" fill="none" xmlns="http://www.w3.org/2000/svg">
<path d="M76.0503 65.2972L74.4228 64.1347L76.0503 65.2972ZM42 52.9722V51.7676H38V52.9722H42ZM61.588 86.5498L45.5772 64.1347L42.3223 66.4597L58.333 88.8747L61.588 86.5498ZM74.4228 64.1347L58.412 86.5498L61.667 88.8747L77.6777 66.4597L74.4228 64.1347ZM78 51.7676V52.9722H82V51.7676H78ZM58.333 88.8747C59.15 90.0186 60.85 90.0186 61.667 88.8747L58.412 86.5498C59.1903 85.4602 60.8097 85.4602 61.588 86.5498L58.333 88.8747ZM38 52.9722C38 57.8086 39.5112 62.5241 42.3223 66.4597L45.5772 64.1347C43.2507 60.8776 42 56.9749 42 52.9722H38ZM77.6777 66.4597C80.4888 62.5241 82 57.8086 82 52.9722H78C78 56.9749 76.7493 60.8776 74.4228 64.1347L77.6777 66.4597ZM60 33.7676C69.9411 33.7676 78 41.8265 78 51.7676H82C82 39.6173 72.1503 29.7676 60 29.7676V33.7676ZM60 29.7676C47.8497 29.7676 38 39.6173 38 51.7676H42C42 41.8265 50.0589 33.7676 60 33.7676V29.7676Z" fill="#0072CE"/>
<path d="M56.0908 43.7693C58.5612 42.5796 61.4388 42.5796 63.9092 43.7693V43.7693C66.3795 44.9589 68.1737 47.2087 68.7838 49.8819V49.8819C69.3939 52.555 68.7536 55.3605 67.0441 57.5042V57.5042C65.3345 59.6478 62.7419 60.8964 60 60.8964V60.8964C57.2581 60.8964 54.6655 59.6478 52.9559 57.5042V57.5042C51.2464 55.3605 50.6061 52.555 51.2162 49.8819V49.8819C51.8263 47.2087 53.6205 44.9589 56.0908 43.7693V43.7693Z" stroke="#0072CE" stroke-width="4" stroke-linecap="round" stroke-linejoin="round"/>
</svg>
